<?xml version="1.0" encoding="utf-8"?>
<!-- Generator: Adobe Illustrator 27.5.0, SVG Export Plug-In . SVG Version: 6.00 Build 0)  -->
<svg
  version="1.1"
  xmlns="http://www.w3.org/2000/svg"
  xmlns:xlink="http://www.w3.org/1999/xlink"
  x="0px"
  y="0px"
  viewBox="0 0 500 500"
  style="enable-background: new 0 0 500 500"
  xml:space="preserve"
>
  <g id="BACKGROUND">
    <radialGradient
      id="SVGID_1_"
      cx="250"
      cy="250"
      r="250"
      gradientUnits="userSpaceOnUse"
    >
      <stop offset="0" style="stop-color: #311b08" />
      <stop offset="0.9851" style="stop-color: #150c0c" />
    </radialGradient>
    <rect style="fill: url(#SVGID_1_)" width="500" height="500" />
  </g>
  <g id="OBJECTS">
    <g>
      <g>
        <g>
          <g>
            <linearGradient
              id="SVGID_00000106149645798216016620000008496884455785895319_"
              gradientUnits="userSpaceOnUse"
              x1="123.7044"
              y1="233.7928"
              x2="369.6439"
              y2="-15.8959"
            >
              <stop offset="0.008" style="stop-color: #ff632a" />
              <stop offset="1" style="stop-color: #ff9932" />
            </linearGradient>
            <path
              style="
                fill: url(#SVGID_00000106149645798216016620000008496884455785895319_);
              "
              d="M381.957,107.416
						c-1.716,3.828-3.134,6.607-5.971,9.697c1.847-20.923-4.586-42.398-17.758-58.759c0.6,2.7,0.689,4.833,0.388,7.582
						c-2.288-5.082-6.108-9.462-10.832-12.42c-4.206-2.633-9.013-4.116-13.758-5.57c5.768,5.845,8.366,14.149,9.598,22.268
						c0.938,6.18,1.823,13.338-1.957,18.317c-1.237-2.878-3.39-6.379-5.972-8.154c2.299,6.624-0.348,13.883-3.434,20.18
						c-2.214,4.519-4.721,8.984-8.299,12.523c-3.499,3.46-8.167,5.969-13.077,6.027c-1.294-1.884-2.501-3.826-3.617-5.802
						c-1.408-2.493-2.378-4.975-1.94-7.804l1.9-9.365c0.03-6.413-3.754-13.764-9.452-16.706c-5.759-2.974-12.733-2.571-18.701-5.101
						c-4.799-2.035-8.741-5.985-10.764-10.789c-1.127,6.089-0.017,12.567,3.073,17.934c-4.242-1.754-8.129-4.364-11.36-7.625
						c1.969,10.729,10.647,19.491,12.082,30.305c0.406,3.06,0.016,6.6-2.413,8.505c-1.376,1.079-3.187,1.44-4.935,1.503
						c-2.223,0.08-4.461-0.272-6.552-1.03c-2.346-0.851-4.781-2.702-4.66-5.194l-0.386-0.352c0.283,3.186,0.566,6.372,0.848,9.559
						c0.024,0.266,0.04,0.561-0.122,0.773c-0.188,0.247-0.542,0.286-0.852,0.273c-2.746-0.114-4.779-2.557-6.155-4.936
						c-2.786-4.813-4.453-10.268-4.832-15.816c-1.419,2.803-3.701,7.992-4.09,11.109c-5.971-9.371-9.844-20.389-18.149-27.771
						c-8.219-7.304-19.538-9.902-30.437-11.354c-24.791-3.303-51.255-5.278-74.417-14.712c6.722,9.084,15.664,16.513,25.826,21.457
						c-3.495,0.3-7.708,0.758-11.203,1.058c4.21,5.828,9.946,11.146,16.425,14.264c6.479,3.117,14.178,6.11,21.082,8.117
						c-4.078,0.902-9.949,1.818-13.918,0.516c5.075,2.85,12.214,5.905,17.467,8.412c5.254,2.506,10.344,5.963,13.113,11.083
						c-4.001,0.127-8.339-0.51-12.321-1.722c8.981,7.859,16.679,12.473,20.001,21.672c-3.55-0.152-4.584,1.183-10.109-1.411
						c2.809,4.306,6.639,7.83,9.949,11.764c3.309,3.934,6.196,8.555,6.513,13.686l-0.02-0.072c-3.243,0.16-6.53-1.222-8.684-3.652
						l-0.472-0.728c2.206,6.004,7.904,9.89,13.27,13.372c3.828,2.484,8.166,5.337,11.994,7.821c-2.942,0.446-5.929,0.593-8.901,0.44
						c-0.924-0.048-2.006-0.224-2.43-1.047c3.608,7.057,12.778,8.159,19.65,8.862c6.872,0.703,13.809-0.193,20.6-1.46
						c-3.362,1.958-8.588,3.777-12.352,4.765c5.893,0.936,12.357,1.169,18.04-0.649c-1.163,4.301-4.624,7.899-8.06,10.734
						c-1.196,0.987-2.48,2.013-4.017,2.218c3.484,0.724,7.624,1.249,10.62-0.671c1.237,11.403-2.994,24.814-12.824,30.724
						c-2.137,1.285-4.455,2.233-6.762,3.177c-2.465,1.008-5.441,2.313-7.906,3.32v0.188c2.497,1.031,5.367,0.941,7.929,0.083
						l0.224-0.001c-9.608,5.823-20.116,12.815-28.681,20.085c-8.566,7.27-16.105,16.008-20.38,26.397l0.037,0.072
						c3.008-3.751,6.431-7.072,10.529-9.588h0.102c-6.161,6.033-10.966,16.238-12.917,24.637s-2.168,17.102-1.995,25.723
						c0.24,11.952,1.332,24.306,7.059,34.799l0.061-0.619c-2.338-15.945,2.255-32.613,11.849-45.562l0.14,0.268
						c0.35,3.011-0.846,6.885-1.523,9.84l0.311-0.184c10.878-5.433,19.307-15.56,23.029-27.136l0.1,0.297
						c0.751,3.464-0.574,9.695-1.796,13.022l0.261,0.014c18.05-10.317,31.462-28.184,37.186-48.171l0.2,0.768
						c0.505,4.287,2.98,9.608,6.814,11.591l-0.237-0.492c-0.753-7.994,0.673-16.183,4.084-23.452
						c2.433-5.185,6.049-9.441,11.159-12.027l0.001-0.004c16.406-7.27,31.222-19.238,41.577-33.862l0,0.005
						c3.976-0.489,12.031-2.504,15.605-4.313c3.247-1.643,6.213-3.785,9.163-5.917c4.293-3.102,8.593-6.211,12.566-9.713
						c7.205-6.351,13.784-14.952,18.368-23.392c-1.568,1.592-4.126,2.704-6.359,2.631
						C380.347,152.383,387.598,128.441,381.957,107.416z"
            />
          </g>
        </g>
        <g>
          <g>
            <linearGradient
              id="SVGID_00000110450288750127623890000016647497770242077614_"
              gradientUnits="userSpaceOnUse"
              x1="384.0583"
              y1="51.2588"
              x2="307.5769"
              y2="182.7268"
            >
              <stop offset="0.008" style="stop-color: #ff632a" />
              <stop offset="1" style="stop-color: #ff9932" />
            </linearGradient>
            <path
              style="
                fill: url(#SVGID_00000110450288750127623890000016647497770242077614_);
              "
              d="M310.54,119.114
						c5.032,0.054,9.831-2.496,13.408-6.034c3.578-3.538,6.085-8.004,8.299-12.523c3.085-6.296,5.732-13.556,3.434-20.18
						c2.581,1.775,4.735,5.276,5.972,8.154c3.78-4.979,2.895-12.137,1.957-18.317c-1.232-8.119-3.83-16.423-9.598-22.268
						c4.745,1.454,9.552,2.936,13.758,5.57c4.724,2.958,8.558,7.338,10.846,12.42c0.3-2.749,0.198-4.882-0.402-7.582
						c13.172,16.361,19.716,37.907,17.869,58.83l0.006-0.071c2.837-3.09,4.151-5.869,5.867-9.697
						c5.641,21.025-1.624,44.967-17.982,59.33c2.234,0.073,4.791-1.039,6.359-2.631c-4.585,8.44-11.163,17.041-18.368,23.392
						c-3.973,3.502-8.273,6.611-12.566,9.713c-2.95,2.132-5.915,4.273-9.162,5.917c-3.574,1.809-7.464,2.993-11.44,3.481"
            />
          </g>
          <g>
            <g>
              <linearGradient
                id="SVGID_00000013160039897137467180000013325016062620784777_"
                gradientUnits="userSpaceOnUse"
                x1="354.5163"
                y1="71.4908"
                x2="361.5681"
                y2="126.0934"
              >
                <stop offset="0.1617" style="stop-color: #ff9932" />
                <stop
                  offset="0.6287"
                  style="stop-color: #ff632a; stop-opacity: 0"
                />
              </linearGradient>
              <path
                style="
                  fill: url(#SVGID_00000013160039897137467180000013325016062620784777_);
                "
                d="M369.222,94.014
							c-1.584-6.561-3.948-12.933-7.026-18.939c0.405,4.129-0.511,8.377-2.582,11.971c-1.034-2.548-2.069-5.095-3.104-7.643
							c-1.681-4.139-3.443-8.401-6.626-11.535c1.69,8.709,0.128,18.011-4.314,25.69"
              />
            </g>
            <g>
              <linearGradient
                id="SVGID_00000062871181589381053030000006064991020694019981_"
                gradientUnits="userSpaceOnUse"
                x1="365.3917"
                y1="123.213"
                x2="307.406"
                y2="178.6993"
              >
                <stop offset="0.2118" style="stop-color: #ff9932" />
                <stop
                  offset="0.7609"
                  style="stop-color: #ff632a; stop-opacity: 0"
                />
              </linearGradient>
              <path
                style="
                  fill: url(#SVGID_00000062871181589381053030000006064991020694019981_);
                "
                d="M339.708,188.967
							c4.391-7.401,9.765-14.219,15.936-20.217c-3.296,0.036-6.591,0.071-9.887,0.107c11.932-10.685,18.596-26.994,17.561-42.977
							c-2.125,9.041-9.291,16.721-18.164,19.466c4.071-9.474,5.517-20.06,4.136-30.279c-2.647,7.016-10.198,11.849-17.678,11.314
							c3.135-6.004,5.567-12.375,7.231-18.94c-4.542,4.68-9.083,9.36-13.625,14.039"
              />
            </g>
            <g>
              <linearGradient
                id="SVGID_00000155144804979261531180000001010069413511909556_"
                gradientUnits="userSpaceOnUse"
                x1="360.7139"
                y1="88.4522"
                x2="334.5242"
                y2="205.909"
              >
                <stop offset="0.1617" style="stop-color: #ff9932" />
                <stop
                  offset="0.4406"
                  style="stop-color: #ff632a; stop-opacity: 0"
                />
              </linearGradient>
              <path
                style="
                  fill: url(#SVGID_00000155144804979261531180000001010069413511909556_);
                "
                d="M374.61,146.194
							c2.588-5.029,3.031-11.119,1.197-16.47c-1.762,2.891-3.524,5.781-5.286,8.672c1.554-14.164-1.289-28.78-8.04-41.329
							c-0.375,6.932-2.809,13.565-5.217,20.077c1.236-8.525-1.822-17.564-7.98-23.588c-1.022,6.178-3.589,12.095-7.403,17.062
							l-16.663,13.887l34.517,45.989L374.61,146.194z"
              />
            </g>
          </g>
        </g>
      </g>
      <g>
        <g>
          <g>
            <linearGradient
              id="SVGID_00000108279560663252016460000002548363002400481177_"
              gradientUnits="userSpaceOnUse"
              x1="159.7199"
              y1="74.2184"
              x2="209.8747"
              y2="108.8873"
              gradientTransform="matrix(1.1261 -0.04 0.0342 0.9634 -25.4868 10.482)"
            >
              <stop offset="0.2118" style="stop-color: #ff9932" />
              <stop
                offset="0.7609"
                style="stop-color: #ff632a; stop-opacity: 0"
              />
            </linearGradient>
            <path
              style="
                fill: url(#SVGID_00000108279560663252016460000002548363002400481177_);
              "
              d="M193.125,77.554
						c-9.334-1.002-18.668-2.004-28.003-3.006c-5.839-0.627-12.205-1.481-16.094-5.233c5.249,7.818,12.602,14.582,21.332,19.625
						c-7.057,0.43-14.188-0.212-20.96-1.886c4.661,2.991,9.656,5.603,14.898,7.791c4.361,1.82,8.909,3.355,13.002,5.582
						c4.092,2.227,7.782,5.266,9.451,9.169"
            />
          </g>
          <g>
            <linearGradient
              id="SVGID_00000115479320064035904510000016093752298808336282_"
              gradientUnits="userSpaceOnUse"
              x1="251.6976"
              y1="152.7198"
              x2="178.8987"
              y2="97.5393"
              gradientTransform="matrix(0.9934 -0.1148 0.1148 0.9934 -15.0333 21.97)"
            >
              <stop
                offset="0.2391"
                style="stop-color: #ff632a; stop-opacity: 0"
              />
              <stop offset="0.7882" style="stop-color: #ff9932" />
            </linearGradient>
            <path
              style="
                fill: url(#SVGID_00000115479320064035904510000016093752298808336282_);
              "
              d="M231.413,106.994
						c-5.879-5.707-11.758-11.413-17.637-17.12c-5.497-5.336-12.673-11.111-19.968-8.774c6.671,6.442,11.431,14.838,13.535,23.869
						c-8.469-7.09-19.479-11.079-30.525-11.058c11.631,7.97,21.303,18.777,27.938,31.218c-5.366-3.014-11.554-4.547-17.706-4.384
						c6.525,3.936,12.2,9.272,16.529,15.543c-2.424,0.296-4.848,0.592-7.272,0.888c-0.841,0.103-1.848,0.334-2.112,1.139
						c-0.231,0.704,0.258,1.423,0.727,1.997c2.865,3.51,6.01,6.791,9.396,9.802"
            />
          </g>
          <g>
            <linearGradient
              id="SVGID_00000145772713493041633050000004168402119066328246_"
              gradientUnits="userSpaceOnUse"
              x1="297.8784"
              y1="174.7711"
              x2="192.3741"
              y2="132.1788"
            >
              <stop
                offset="0.2391"
                style="stop-color: #ff632a; stop-opacity: 0"
              />
              <stop offset="0.7882" style="stop-color: #ff9932" />
            </linearGradient>
            <path
              style="
                fill: url(#SVGID_00000145772713493041633050000004168402119066328246_);
              "
              d="M236.288,179.097
						c-6.036,1.163-12.46,0.203-17.893-2.674c2.414-0.906,4.829-1.812,7.243-2.718c-5.809-5.126-12.103-9.703-18.771-13.648
						c5.533-1.948,11.7-2.046,17.292-0.277c-5.178-8.904-12.825-16.356-21.86-21.302c8.503-2.847,17.915-2.905,26.454-0.163
						c-7.888-7.971-12.451-19.135-12.405-30.348c4.305,6.514,11.811,9.976,18.616,13.803c6.805,3.827,13.772,9.075,15.317,16.728"
            />
          </g>
        </g>
        <g>
          <g>
            <linearGradient
              id="SVGID_00000121271445134365027910000008153636964609714306_"
              gradientUnits="userSpaceOnUse"
              x1="332.1782"
              y1="192.9848"
              x2="188.734"
              y2="150.4833"
            >
              <stop offset="0.1239" style="stop-color: #ff632a" />
              <stop
                offset="0.6599"
                style="stop-color: #ff9932; stop-opacity: 0"
              />
            </linearGradient>
            <path
              style="
                fill: url(#SVGID_00000121271445134365027910000008153636964609714306_);
              "
              d="M305.739,105.871
						c-0.464,2.993,0.946,5.933,2.435,8.57c5.861,10.377,13.995,19.955,24.858,24.856c-4.102-0.371-9.237-0.853-12.479-3.395
						c11.476,18.382,15.271,44.788,9.034,65.541c-0.573-3.821-1.689-7.561-3.306-11.07c-0.309,5.954-3.168,12.297-6.225,17.415
						c-12.278,20.558-32.833,37.037-55.417,44.996c2.723-3.046,5.007-6.482,6.762-10.172c0,0,8.075-13.312,8.471-24.021
						c0.397-10.709-7.34-94.581,25.728-113.292"
            />
          </g>
          <g>
            <g>
              <linearGradient
                id="SVGID_00000026841928110971087040000012112697369293983890_"
                gradientUnits="userSpaceOnUse"
                x1="193.2151"
                y1="313.028"
                x2="187.9962"
                y2="295.7283"
              >
                <stop offset="0.1391" style="stop-color: #ff9932" />
                <stop offset="0.992" style="stop-color: #ff632a" />
              </linearGradient>
              <path
                style="
                  fill: url(#SVGID_00000026841928110971087040000012112697369293983890_);
                "
                d="M197.531,292.852
							c-5.905,4.239-12.136,8.901-14.552,15.756c-0.52,1.475-0.822,3.189-0.037,4.542c0.928,1.599,3.146,2.09,4.897,1.497
							c1.751-0.593,3.09-2.024,4.134-3.55c3.572-5.221,3.614-11.808,5.557-17.828V292.852z"
              />
            </g>
            <g>
              <linearGradient
                id="SVGID_00000040560670060874408640000015216404353242303928_"
                gradientUnits="userSpaceOnUse"
                x1="304.3421"
                y1="249.2474"
                x2="278.9904"
                y2="183.2611"
              >
                <stop offset="0.3988" style="stop-color: #ff9932" />
                <stop
                  offset="0.704"
                  style="stop-color: #ff632a; stop-opacity: 0"
                />
              </linearGradient>
              <path
                style="
                  fill: url(#SVGID_00000040560670060874408640000015216404353242303928_);
                "
                d="M264.987,194.937
							c2.694,7.538,1.544,16.34-2.996,22.933c4.875-1.441,9.292-4.389,12.494-8.337c2.419,5.895,2.017,12.877-1.062,18.456
							c6.798-2.84,12.998-7.101,18.086-12.429c0.042,5.038-0.417,10.081-1.371,15.029c10.424-8.517,19.118-19.142,25.404-31.045"
              />
            </g>
            <g>
              <linearGradient
                id="SVGID_00000171698036758635738200000004310679936345721991_"
                gradientUnits="userSpaceOnUse"
                x1="315.9597"
                y1="214.1838"
                x2="288.7671"
                y2="143.4059"
              >
                <stop offset="0.2118" style="stop-color: #ff9932" />
                <stop
                  offset="0.7609"
                  style="stop-color: #ff632a; stop-opacity: 0"
                />
              </linearGradient>
              <path
                style="
                  fill: url(#SVGID_00000171698036758635738200000004310679936345721991_);
                "
                d="M312.606,136.929
							c3.463,7.481,6.85,15.043,9.017,22.997c2.167,7.954,3.082,16.372,1.537,24.47c-2.434-4.15-5.3-8.046-8.538-11.604
							c0.562,6.177-1.619,12.354-4.938,17.594c-3.319,5.24-7.731,9.682-12.106,14.078c0.842-4.028,1.095-8.179,0.747-12.28
							c-4.399,3.698-9.052,7.094-13.915,10.156c2.043-5.085,2.463-10.807,1.185-16.136"
              />
            </g>
            <g>
              <linearGradient
                id="SVGID_00000161619505261342906600000008031614953144862395_"
                gradientUnits="userSpaceOnUse"
                x1="234.6275"
                y1="283.3422"
                x2="233.6786"
                y2="212.5742"
              >
                <stop offset="0" style="stop-color: #ff9932" />
                <stop
                  offset="0.704"
                  style="stop-color: #ff632a; stop-opacity: 0"
                />
              </linearGradient>
              <path
                style="
                  fill: url(#SVGID_00000161619505261342906600000008031614953144862395_);
                "
                d="M263.994,236.218
							c-5.879,6.998-9.95,15.502-11.716,24.47c-2.367-3.281-3.758-7.258-3.952-11.299c-6.219,14.127-13.379,28.642-25.835,37.756
							c1.917-6.179,2.779-12.684,2.537-19.149c-8.285,3.412-15.442,9.501-20.138,17.131c-0.815-2.86,0.404-5.875,1.738-8.533
							c4.056-8.078,9.424-15.495,15.831-21.871"
              />
            </g>
          </g>
        </g>
      </g>
      <g>
        <g>
          <g>
            <linearGradient
              id="SVGID_00000110442095397076431370000008532581373667837847_"
              gradientUnits="userSpaceOnUse"
              x1="237.3072"
              y1="88.1285"
              x2="232.8966"
              y2="73.5084"
            >
              <stop offset="0.008" style="stop-color: #ff632a" />
              <stop offset="0.8609" style="stop-color: #ff9932" />
            </linearGradient>
            <path
              style="
                fill: url(#SVGID_00000110442095397076431370000008532581373667837847_);
              "
              d="M232.033,79.914
						c0.015,2.384,1.612,5.208,3.636,6.467c0.698,0.434,1.577,0.747,2.331,0.42c0.633-0.274,1.02-0.954,1.114-1.638
						c0.093-0.684-0.063-1.376-0.256-2.039c-1.003-3.444-3.064-6.573-5.834-8.853c0.761,2.099,1.343,4.263,1.738,6.461
						C233.852,80.459,232.942,80.186,232.033,79.914z"
            />
          </g>
          <g>
            <linearGradient
              id="SVGID_00000092457601444403553650000011017231421213538463_"
              gradientUnits="userSpaceOnUse"
              x1="250.0784"
              y1="72.4419"
              x2="248.343"
              y2="66.6894"
            >
              <stop offset="0.008" style="stop-color: #ff632a" />
              <stop offset="0.8609" style="stop-color: #ff9932" />
            </linearGradient>
            <path
              style="
                fill: url(#SVGID_00000092457601444403553650000011017231421213538463_);
              "
              d="M248.003,69.21
						c0.006,0.938,0.634,2.049,1.431,2.544c0.274,0.171,0.62,0.294,0.917,0.165c0.249-0.108,0.401-0.375,0.438-0.644
						c0.037-0.269-0.025-0.542-0.101-0.802c-0.395-1.355-1.206-2.586-2.295-3.483c0.299,0.826,0.528,1.677,0.684,2.542
						C248.719,69.424,248.361,69.317,248.003,69.21z"
            />
          </g>
          <g>
            <linearGradient
              id="SVGID_00000150796867673199283850000002709571682327770265_"
              gradientUnits="userSpaceOnUse"
              x1="261.2381"
              y1="107.9846"
              x2="253.9823"
              y2="83.9331"
            >
              <stop offset="0.008" style="stop-color: #ff632a" />
              <stop offset="0.8609" style="stop-color: #ff9932" />
            </linearGradient>
            <path
              style="
                fill: url(#SVGID_00000150796867673199283850000002709571682327770265_);
              "
              d="M251.573,94.507
						c0.029,3.846,3.093,8.401,6.978,10.433c1.339,0.7,3.025,1.205,4.472,0.678c1.215-0.443,1.958-1.539,2.137-2.642
						c0.179-1.103-0.12-2.221-0.49-3.29c-1.925-5.557-5.88-10.604-11.195-14.283c1.461,3.386,2.577,6.877,3.334,10.423
						C255.064,95.386,253.318,94.947,251.573,94.507z"
            />
          </g>
          <g>
            <linearGradient
              id="SVGID_00000081608341726928483040000000853900890721716104_"
              gradientUnits="userSpaceOnUse"
              x1="181.1258"
              y1="187.7435"
              x2="173.8701"
              y2="163.6923"
              gradientTransform="matrix(0.8013 -0.5983 0.5983 0.8013 -74.0384 98.6187)"
            >
              <stop offset="0.008" style="stop-color: #ff632a" />
              <stop offset="0.8609" style="stop-color: #ff9932" />
            </linearGradient>
            <path
              style="
                fill: url(#SVGID_00000081608341726928483040000000853900890721716104_);
              "
              d="M161.592,131.22
						c2.324,3.065,7.504,4.882,11.833,4.185c1.492-0.24,3.145-0.844,3.989-2.133c0.709-1.082,0.648-2.404,0.132-3.396
						c-0.517-0.991-1.425-1.708-2.361-2.343c-4.867-3.301-11.056-4.979-17.515-4.748c3.196,1.84,6.18,3.969,8.907,6.357
						C164.915,129.836,163.253,130.528,161.592,131.22z"
            />
          </g>
          <g>
            <linearGradient
              id="SVGID_00000055686890168378001250000006642987796527929526_"
              gradientUnits="userSpaceOnUse"
              x1="386.336"
              y1="81.7865"
              x2="385.2935"
              y2="59.6947"
            >
              <stop offset="0.008" style="stop-color: #ff632a" />
              <stop offset="0.8609" style="stop-color: #ff9932" />
            </linearGradient>
            <path
              style="
                fill: url(#SVGID_00000055686890168378001250000006642987796527929526_);
              "
              d="M380.324,68.105
						c-0.908,3.738,0.955,8.901,4.229,11.817c1.128,1.005,2.641,1.905,4.173,1.746c1.286-0.134,2.273-1.016,2.716-2.043
						c0.442-1.027,0.424-2.183,0.325-3.31c-0.514-5.858-3.123-11.716-7.382-16.578c0.593,3.64,0.826,7.298,0.698,10.921
						C383.496,69.808,381.91,68.956,380.324,68.105z"
            />
          </g>
          <g>
            <linearGradient
              id="SVGID_00000109002223136845814340000002391575545452298399_"
              gradientUnits="userSpaceOnUse"
              x1="180.5217"
              y1="155.7095"
              x2="177.2929"
              y2="145.0065"
              gradientTransform="matrix(0.8013 -0.5983 0.5983 0.8013 -74.0384 98.6187)"
            >
              <stop offset="0.008" style="stop-color: #ff632a" />
              <stop offset="0.8609" style="stop-color: #ff9932" />
            </linearGradient>
            <path
              style="
                fill: url(#SVGID_00000109002223136845814340000002391575545452298399_);
              "
              d="M156.74,113.15
						c1.034,1.364,3.339,2.172,5.266,1.862c0.664-0.107,1.4-0.376,1.775-0.949c0.315-0.481,0.288-1.07,0.059-1.511
						c-0.23-0.441-0.634-0.76-1.051-1.042c-2.166-1.469-4.92-2.216-7.794-2.113c1.422,0.819,2.75,1.766,3.964,2.829
						C158.219,112.534,157.479,112.842,156.74,113.15z"
            />
          </g>
          <g>
            <linearGradient
              id="SVGID_00000020363615177695035820000018122919571208501159_"
              gradientUnits="userSpaceOnUse"
              x1="181.1333"
              y1="366.0375"
              x2="177.9045"
              y2="355.3349"
              gradientTransform="matrix(0.4114 0.9115 -0.9115 0.4114 595.7079 -103.4707)"
            >
              <stop offset="0.008" style="stop-color: #ff632a" />
              <stop offset="0.8609" style="stop-color: #ff9932" />
            </linearGradient>
            <path
              style="
                fill: url(#SVGID_00000020363615177695035820000018122919571208501159_);
              "
              d="M340.28,205.833
						c-1.555,0.716-2.841,2.792-2.954,4.74c-0.039,0.671,0.065,1.448,0.544,1.938c0.402,0.412,0.983,0.512,1.463,0.383
						c0.48-0.129,0.879-0.455,1.244-0.801c1.902-1.798,3.225-4.326,3.744-7.155c-1.106,1.212-2.318,2.304-3.617,3.26
						C340.563,207.41,340.421,206.621,340.28,205.833z"
            />
          </g>
          <g>
            <linearGradient
              id="SVGID_00000170256066461652083690000012190750455162822035_"
              gradientUnits="userSpaceOnUse"
              x1="171.3608"
              y1="133.435"
              x2="168.9286"
              y2="125.3727"
              gradientTransform="matrix(0.8013 -0.5983 0.5983 0.8013 -74.0384 98.6187)"
            >
              <stop offset="0.008" style="stop-color: #ff632a" />
              <stop offset="0.8609" style="stop-color: #ff9932" />
            </linearGradient>
            <path
              style="
                fill: url(#SVGID_00000170256066461652083690000012190750455162822035_);
              "
              d="M137.808,101.333
						c0.779,1.028,2.516,1.637,3.967,1.403c0.5-0.08,1.054-0.283,1.337-0.715c0.238-0.363,0.217-0.806,0.044-1.138
						c-0.173-0.332-0.478-0.572-0.792-0.785c-1.631-1.107-3.706-1.669-5.871-1.591c1.071,0.617,2.072,1.33,2.986,2.131
						C138.922,100.869,138.365,101.101,137.808,101.333z"
            />
          </g>
          <g>
            <linearGradient
              id="SVGID_00000101819248827474240760000013670673812508134017_"
              gradientUnits="userSpaceOnUse"
              x1="340.8076"
              y1="70.2346"
              x2="340.3081"
              y2="59.6499"
              gradientTransform="matrix(0.9826 -0.1855 0.1855 0.9826 -9.5369 67.099)"
            >
              <stop offset="0.008" style="stop-color: #ff632a" />
              <stop offset="0.8609" style="stop-color: #ff9932" />
            </linearGradient>
            <path
              style="
                fill: url(#SVGID_00000101819248827474240760000013670673812508134017_);
              "
              d="M335.773,62.764
						c-0.146-0.19-0.445-0.075-0.426,0.164c0.07,0.883-0.121,1.626-0.213,2.857c-0.052,0.705-0.257,1.394-0.276,2.101
						c-0.048,1.831,0.938,3.654,2.497,4.616c0.292,0.18,0.613,0.335,0.957,0.352c0.586,0.029,1.136-0.363,1.427-0.872
						c0.312-0.547,0.37-1.205,0.344-1.831c-0.054-1.329-0.51-2.611-1.276-3.698c-0.645-0.916-1.198-1.673-1.953-2.512
						C336.414,63.452,336.093,63.181,335.773,62.764z"
            />
          </g>
          <g>
            <linearGradient
              id="SVGID_00000000914475716620316960000005866111045011327618_"
              gradientUnits="userSpaceOnUse"
              x1="385.8585"
              y1="107.0902"
              x2="385.3591"
              y2="96.5056"
              gradientTransform="matrix(0.9826 -0.1855 0.1855 0.9826 -9.5369 67.099)"
            >
              <stop offset="0.008" style="stop-color: #ff632a" />
              <stop offset="0.8609" style="stop-color: #ff9932" />
            </linearGradient>
            <path
              style="
                fill: url(#SVGID_00000000914475716620316960000005866111045011327618_);
              "
              d="M386.876,90.621
						c-0.146-0.19-0.445-0.075-0.426,0.164c0.07,0.883-0.122,1.626-0.213,2.857c-0.052,0.705-0.257,1.394-0.276,2.101
						c-0.048,1.831,0.939,3.654,2.497,4.616c0.292,0.18,0.613,0.335,0.957,0.352c0.586,0.029,1.136-0.363,1.427-0.872
						c0.312-0.547,0.37-1.205,0.345-1.831c-0.054-1.329-0.51-2.611-1.276-3.698c-0.646-0.916-1.198-1.673-1.953-2.512
						C387.517,91.31,387.196,91.038,386.876,90.621z"
            />
          </g>
          <g>
            <linearGradient
              id="SVGID_00000109735210213079405180000012550498317812011964_"
              gradientUnits="userSpaceOnUse"
              x1="140.2945"
              y1="57.2627"
              x2="139.5023"
              y2="40.4744"
              gradientTransform="matrix(0.7855 -0.6189 0.6189 0.7855 -33.6272 114.8384)"
            >
              <stop offset="0.008" style="stop-color: #ff632a" />
              <stop offset="0.8609" style="stop-color: #ff9932" />
            </linearGradient>
            <path
              style="
                fill: url(#SVGID_00000109735210213079405180000012550498317812011964_);
              "
              d="M100.933,60.651
						c-0.344-0.16-0.681,0.222-0.479,0.543c0.746,1.19,1.022,2.375,1.796,4.174c0.443,1.03,0.661,2.15,1.153,3.157
						c1.275,2.61,4,4.451,6.898,4.66c0.543,0.039,1.108,0.021,1.604-0.207c0.846-0.389,1.332-1.343,1.367-2.274
						c0.038-0.998-0.364-1.967-0.858-2.827c-1.051-1.829-2.632-3.298-4.507-4.265c-1.579-0.814-2.913-1.474-4.59-2.1
						C102.34,61.149,101.689,61.002,100.933,60.651z"
            />
          </g>
          <g>
            <linearGradient
              id="SVGID_00000032630949444956520620000016044859321956615050_"
              gradientUnits="userSpaceOnUse"
              x1="129.1452"
              y1="350.5984"
              x2="128.353"
              y2="333.8103"
              gradientTransform="matrix(0.758 0.6523 -0.6523 0.758 449.5898 -123.3363)"
            >
              <stop offset="0.008" style="stop-color: #ff632a" />
              <stop offset="0.8609" style="stop-color: #ff9932" />
            </linearGradient>
            <path
              style="
                fill: url(#SVGID_00000032630949444956520620000016044859321956615050_);
              "
              d="M328.773,213.418
						c0.091-0.368-0.348-0.626-0.625-0.366c-1.025,0.96-2.136,1.458-3.753,2.563c-0.926,0.632-1.983,1.061-2.878,1.737
						c-2.317,1.752-3.602,4.779-3.251,7.663c0.066,0.541,0.192,1.092,0.51,1.534c0.544,0.756,1.574,1.049,2.493,0.906
						c0.986-0.154,1.86-0.734,2.611-1.384c1.594-1.382,2.733-3.215,3.322-5.241c0.496-1.706,0.889-3.142,1.181-4.908
						C328.554,214.894,328.573,214.228,328.773,213.418z"
            />
          </g>
        </g>
        <g>
          <g>
            <g>
              <linearGradient
                id="SVGID_00000158713592756357046970000018306741926816583052_"
                gradientUnits="userSpaceOnUse"
                x1="130.7201"
                y1="422.7322"
                x2="243.0069"
                y2="308.7337"
              >
                <stop offset="0" style="stop-color: #ff9932" />
                <stop
                  offset="0.992"
                  style="stop-color: #ff632a; stop-opacity: 0"
                />
              </linearGradient>
              <path
                style="
                  fill: url(#SVGID_00000158713592756357046970000018306741926816583052_);
                "
                d="M200.24,266.281
							c-12.227,6.871-22.775,18.4-30.408,30.034c-8.235,12.552-13.146,27.167-13.317,42.236
							c-0.176,15.487,5.192,29.069,14.187,41.477c9.244,12.751,18.382,24.561,19.102,40.946c0.334,7.599-0.859,15.216-3.533,22.34
							c-3.033,8.082-8.013,14.269-13.461,20.809c-1.146,1.376,0.34,3.827,2.06,2.67c10.165-6.84,16.35-19.765,18.713-31.463
							c2.559-12.67,1.093-25.973-4.823-37.521c-7.356-14.359-20.096-25.231-24.842-41.016c-4.845-16.118-2.676-33.674,4.336-48.815
							c3.633-7.845,8.499-15.104,14.173-21.616c5.861-6.726,12.756-12.154,19.277-18.183
							C202.73,267.233,201.42,265.619,200.24,266.281L200.24,266.281z"
              />
            </g>

            <linearGradient
              id="SVGID_00000080909490337655630680000018339153959431520389_"
              gradientUnits="userSpaceOnUse"
              x1="185.2007"
              y1="483.2421"
              x2="198.3149"
              y2="446.7706"
              gradientTransform="matrix(0.8034 -0.1051 -0.2151 0.8666 122.0881 81.8782)"
            >
              <stop offset="0.3593" style="stop-color: #ff9932" />
              <stop offset="1" style="stop-color: #ff732c" />
            </linearGradient>
            <path
              style="
                fill: url(#SVGID_00000080909490337655630680000018339153959431520389_);
              "
              d="M188.455,450.7
						c1.192,1.577,1.123,4.16,0.309,6.805c-0.37,1.202-1.619,3.035-2.203,4.225c-0.636,1.298-2.039,2.656-3.099,3.717
						c-5.643,5.649-11.874,10.534-18.084,15.302c0.553-3.098,1.106-6.195,1.659-9.293c0.684-3.834,1.39-7.739,3.126-11.629
						c1.736-3.89,4.69-7.835,8.351-9.941c3.661-2.106,8.029-2.734,9.445,0.377L188.455,450.7z"
            />
          </g>
          <g>
            <g>
              <linearGradient
                id="SVGID_00000096744232732216947380000011514772982773581186_"
                gradientUnits="userSpaceOnUse"
                x1="218.6095"
                y1="334.9059"
                x2="286.4684"
                y2="266.0126"
              >
                <stop offset="0" style="stop-color: #ff9932" />
                <stop
                  offset="0.992"
                  style="stop-color: #ff632a; stop-opacity: 0"
                />
              </linearGradient>
              <path
                style="
                  fill: url(#SVGID_00000096744232732216947380000011514772982773581186_);
                "
                d="M260.259,240.055
							c-8.012,6.011-13.485,14.282-15.444,24.169c-2.036,10.275,0.507,20.121,4.487,29.598
							c4.557,10.852,10.882,21.797,10.468,33.948c-0.446,13.106-8.181,22.1-17.666,30.11c-0.925,0.781,0.062,2.52,1.209,2.077
							c8.807-3.407,15.128-12.233,18.112-20.91c3.564-10.365,1.802-20.946-2.171-30.9c-4.283-10.73-10.728-20.984-12.113-32.646
							c-1.535-12.929,4.134-26.018,13.833-34.519C261.47,240.547,260.799,239.65,260.259,240.055L260.259,240.055z"
              />
            </g>
            <g>
              <linearGradient
                id="SVGID_00000021803154879211872380000009777082078301329051_"
                gradientUnits="userSpaceOnUse"
                x1="240.0074"
                y1="378.0669"
                x2="250.4678"
                y2="348.9757"
                gradientTransform="matrix(0.7897 0.1053 -0.2322 0.7962 130.3234 48.4746)"
              >
                <stop offset="0.3593" style="stop-color: #ff9932" />
                <stop offset="1" style="stop-color: #ff732c" />
              </linearGradient>
              <path
                style="
                  fill: url(#SVGID_00000021803154879211872380000009777082078301329051_);
                "
                d="M249.491,355.309
							c0.9,1.484,0.796,3.495,0.107,5.401c-0.313,0.866-1.326,2.044-1.805,2.857c-0.523,0.886-1.646,1.661-2.495,2.273
							c-4.522,3.261-9.488,5.802-14.435,8.254c0.493-2.315,0.987-4.63,1.48-6.944c0.611-2.865,1.24-5.781,2.673-8.472
							c1.433-2.691,3.82-5.173,6.722-6.066c2.903-0.894,6.328-0.481,7.374,2.253L249.491,355.309z"
              />
            </g>
          </g>
        </g>
        <g>
          <g>
            <linearGradient
              id="SVGID_00000013884766092611354540000004655832612319921338_"
              gradientUnits="userSpaceOnUse"
              x1="110.7068"
              y1="364.674"
              x2="142.6399"
              y2="332.2542"
            >
              <stop offset="0" style="stop-color: #ff9932" />
              <stop
                offset="0.992"
                style="stop-color: #ff632a; stop-opacity: 0"
              />
            </linearGradient>
            <path
              style="
                fill: url(#SVGID_00000013884766092611354540000004655832612319921338_);
              "
              d="M133.556,324.134
						c-1.229,8.554-0.483,17.095-3.372,25.419c-1.469,4.231-3.66,8.341-6.533,11.789c-2.454,2.945-5.786,4.864-8.282,7.705
						c-1.296,1.476-0.065,3.877,1.954,3.357c7.746-1.995,13.413-11.619,16.03-18.589c3.384-9.01,4.549-20.595,0.881-29.682
						C134.124,323.858,133.612,323.747,133.556,324.134L133.556,324.134z"
            />
          </g>
          <g>
            <linearGradient
              id="SVGID_00000114073417180272589820000017051146115364400030_"
              gradientUnits="userSpaceOnUse"
              x1="189.9735"
              y1="242.3587"
              x2="212.6224"
              y2="219.3645"
            >
              <stop offset="0" style="stop-color: #ff9932" />
              <stop
                offset="0.992"
                style="stop-color: #ff632a; stop-opacity: 0"
              />
            </linearGradient>
            <path
              style="
                fill: url(#SVGID_00000114073417180272589820000017051146115364400030_);
              "
              d="M209.555,217.238
						c-2.966,4.528-5.162,8.977-9.103,12.847c-3.799,3.73-8.321,6.409-12.784,9.238c-0.893,0.566-0.648,2.364,0.596,2.199
						c10.827-1.432,22.602-11.943,24.394-22.975C212.96,216.691,210.661,215.55,209.555,217.238L209.555,217.238z"
            />
          </g>
          <g>
            <linearGradient
              id="SVGID_00000034077814897271256610000010870801085001030806_"
              gradientUnits="userSpaceOnUse"
              x1="295.5407"
              y1="248.0048"
              x2="304.0353"
              y2="239.3808"
            >
              <stop offset="0" style="stop-color: #ff9932" />
              <stop
                offset="0.992"
                style="stop-color: #ff632a; stop-opacity: 0"
              />
            </linearGradient>
            <path
              style="
                fill: url(#SVGID_00000034077814897271256610000010870801085001030806_);
              "
              d="M302.834,237.995
						c-3.88,2.348-6.814,6.187-6.737,10.902c0.015,0.938,1.23,1.003,1.546,0.209c1.439-3.621,3.284-7.095,6.346-9.615
						C304.832,238.797,303.745,237.444,302.834,237.995L302.834,237.995z"
            />
          </g>
          <g>
            <linearGradient
              id="SVGID_00000014629505141898981420000010430502425645306518_"
              gradientUnits="userSpaceOnUse"
              x1="320.4117"
              y1="91.7785"
              x2="328.8524"
              y2="83.2091"
            >
              <stop offset="0" style="stop-color: #ff9932" />
              <stop
                offset="0.992"
                style="stop-color: #ff632a; stop-opacity: 0"
              />
            </linearGradient>
            <path
              style="
                fill: url(#SVGID_00000014629505141898981420000010430502425645306518_);
              "
              d="M326.597,96.45
						c0.916-5.61,2.094-13.986-2.262-18.45c-0.623-0.638-1.78-0.163-1.767,0.732c0.047,3.325,1.346,6.535,1.529,9.888
						c0.136,2.492-0.029,4.973-0.306,7.45C323.612,97.656,326.337,98.039,326.597,96.45L326.597,96.45z"
            />
          </g>
          <g>
            <linearGradient
              id="SVGID_00000052785383490775958120000015314861096663901576_"
              gradientUnits="userSpaceOnUse"
              x1="148.3191"
              y1="416.6719"
              x2="169.2709"
              y2="395.4008"
            >
              <stop offset="0" style="stop-color: #ff9932" />
              <stop
                offset="0.992"
                style="stop-color: #ff632a; stop-opacity: 0"
              />
            </linearGradient>
            <path
              style="
                fill: url(#SVGID_00000052785383490775958120000015314861096663901576_);
              "
              d="M149.454,378.197
						c7.078,7.432,13.648,15.294,17.586,24.876c1.938,4.715,3.9,10.151,4.031,15.291c0.158,6.234-3.899,10.246-5.92,15.699
						c-0.385,1.039,1.031,2.173,1.947,1.497c10.516-7.77,8.915-20.75,4.639-31.493c-4.302-10.807-11.356-20.914-21.405-27.007
						C149.618,376.625,148.893,377.607,149.454,378.197L149.454,378.197z"
            />
          </g>
          <g>
            <g>
              <linearGradient
                id="SVGID_00000113343243095746908690000008780330886587130775_"
                gradientUnits="userSpaceOnUse"
                x1="192.3678"
                y1="359.5767"
                x2="216.0231"
                y2="335.5609"
              >
                <stop offset="0" style="stop-color: #ff9932" />
                <stop
                  offset="0.992"
                  style="stop-color: #ff632a; stop-opacity: 0"
                />
              </linearGradient>
              <path
                style="
                  fill: url(#SVGID_00000113343243095746908690000008780330886587130775_);
                "
                d="M207.661,327.35
							c-11.372,8.916-16.251,27.48-7.955,40.092c0.584,0.888,2.037,0.345,1.749-0.737c-3.67-13.819-2.462-27.206,6.979-38.582
							C208.89,327.573,208.212,326.918,207.661,327.35L207.661,327.35z"
              />
            </g>
          </g>
          <g>
            <linearGradient
              id="SVGID_00000146501751432002637860000013670840337582885283_"
              gradientUnits="userSpaceOnUse"
              x1="373.1568"
              y1="168.1593"
              x2="398.6035"
              y2="142.3247"
              gradientTransform="matrix(0.9718 0.2359 -0.2359 0.9718 50.7246 -90.0721)"
            >
              <stop offset="0" style="stop-color: #ff9932" />
              <stop
                offset="0.992"
                style="stop-color: #ff632a; stop-opacity: 0"
              />
            </linearGradient>
            <path
              style="
                fill: url(#SVGID_00000146501751432002637860000013670840337582885283_);
              "
              d="M395.567,129.929
						c0.531,7.951-1.086,15.755-4.136,23.085c-2.949,7.086-7.836,13.175-10.802,20.186c-0.427,1.009,0.757,2.062,1.615,1.195
						c5.692-5.755,9.709-14.117,12.508-21.623c2.779-7.45,3.831-15.258,2.497-23.116
						C397.086,128.695,395.503,128.968,395.567,129.929L395.567,129.929z"
            />
          </g>
        </g>
      </g>
      <g>
        <g>
          <g>
            <path
              style="fill: #ffe189"
              d="M300.202,94.264c-1.148-1.643-3.035-2.747-5.029-2.943c-1.994-0.196-4.06,0.521-5.505,1.909
						c0.26,0.962,1.221,1.559,2.159,1.895c2.496,0.893,5.398,0.562,7.63-0.868L300.202,94.264z"
            />
          </g>
          <g>
            <linearGradient
              id="SVGID_00000045591860180143699280000016327211695469216151_"
              gradientUnits="userSpaceOnUse"
              x1="297.6794"
              y1="102.7453"
              x2="322.3704"
              y2="102.7453"
            >
              <stop offset="0.0126" style="stop-color: #ff5310" />
              <stop offset="1" style="stop-color: #41190d" />
            </linearGradient>
            <path
              style="
                fill: url(#SVGID_00000045591860180143699280000016327211695469216151_);
              "
              d="M308.801,95.251
						c-1.413-0.511-3.053-0.89-4.362-0.151c-2.112,1.193-2.083,4.507-4.085,5.876c-0.617,0.422-1.373,0.613-1.969,1.063
						c-0.596,0.451-0.941,1.322-0.521,1.941c2.157,3.181,7.336,1.414,7.336,1.414c9.964-0.196,17.17,5.41,17.17,5.41
						C320.924,103.991,315.351,97.619,308.801,95.251z"
            />
          </g>
        </g>
        <g>
          <linearGradient
            id="SVGID_00000114055550440952882390000013249576633088028862_"
            gradientUnits="userSpaceOnUse"
            x1="270.5428"
            y1="82.3417"
            x2="296.3987"
            y2="106.9383"
          >
            <stop offset="0" style="stop-color: #ff9932" />
            <stop offset="0.929" style="stop-color: #ff632a; stop-opacity: 0" />
          </linearGradient>
          <path
            style="
              fill: url(#SVGID_00000114055550440952882390000013249576633088028862_);
            "
            d="M276.041,102.792
					c-1.597-5.717-4.142-11.168-7.5-16.063c3.165,0.582,6.33,1.163,9.495,1.745c-1.85-4.03-2.982-8.388-3.328-12.809
					c2.643,2.878,6.356,4.749,10.242,5.161"
          />
        </g>
      </g>
    </g>
  </g>
</svg>
